<svg width="76" height="76" viewBox="0 0 76 76" fill="none" xmlns="http://www.w3.org/2000/svg">
<g opacity="0.5">
<path d="M64.125 2.67188H11.875C5.32693 2.67188 0 7.99881 0 14.5469V56.1094C0 62.6574 5.32693 67.9844 11.875 67.9844H52.3984C54.0382 67.9844 55.3672 66.6554 55.3672 65.0156C55.3672 63.3759 54.0382 62.0469 52.3984 62.0469H41.4639L34.6381 53.1917L56.2688 25.6791L70.8302 41.773C71.6536 42.6839 72.953 42.993 74.0987 42.5517C75.2439 42.1099 76 41.0088 76 39.7812V14.5469C76 7.99881 70.6731 2.67188 64.125 2.67188V2.67188ZM70.0625 32.0753L58.311 19.0864C57.7242 18.4376 56.88 18.0792 56.0067 18.1111C55.1329 18.1418 54.3165 18.5558 53.7755 19.2435L30.8988 48.3408L23.1325 38.2656C22.5706 37.5367 21.702 37.1094 20.7812 37.1094C20.7807 37.1094 20.7801 37.1094 20.7795 37.1094C19.8587 37.11 18.9896 37.5379 18.4283 38.2679L11.8947 46.7613C10.8951 48.0613 11.138 49.9249 12.4374 50.9245C13.7374 51.9247 15.601 51.6812 16.6012 50.3818L20.7836 44.9441L33.9673 62.0469H11.875C8.60126 62.0469 5.9375 59.3831 5.9375 56.1094V14.5469C5.9375 11.2731 8.60126 8.60938 11.875 8.60938H64.125C67.3987 8.60938 70.0625 11.2731 70.0625 14.5469V32.0753Z" fill="black"/>
<path d="M20.7812 13.3594C15.8701 13.3594 11.875 17.3544 11.875 22.2656C11.875 27.1768 15.8701 31.1719 20.7812 31.1719C25.6924 31.1719 29.6875 27.1768 29.6875 22.2656C29.6875 17.3544 25.6924 13.3594 20.7812 13.3594ZM20.7812 25.2344C19.1444 25.2344 17.8125 23.9025 17.8125 22.2656C17.8125 20.6288 19.1444 19.2969 20.7812 19.2969C22.4181 19.2969 23.75 20.6288 23.75 22.2656C23.75 23.9025 22.4181 25.2344 20.7812 25.2344Z" fill="black"/>
<path d="M69.5396 47.6397C69.5309 47.631 69.5222 47.6218 69.5135 47.6131C68.1103 46.2 66.2439 45.4219 64.2573 45.4219C62.2766 45.4219 60.4154 46.1954 59.0139 47.6003L53.2822 53.2537C52.115 54.4047 52.1023 56.2845 53.2538 57.4517C54.4048 58.6189 56.2846 58.6322 57.4518 57.4807L61.2886 53.6967V70.3594C61.2886 71.9991 62.6176 73.3281 64.2573 73.3281C65.8971 73.3281 67.2261 71.9991 67.2261 70.3594V53.7871L70.8982 57.5804C71.4803 58.1823 72.2556 58.4844 73.0314 58.4844C73.7753 58.4844 74.5198 58.2066 75.0962 57.6488C76.2744 56.5083 76.3046 54.6291 75.164 53.4508L69.5396 47.6397Z" fill="black"/>
</g>
</svg>
